<?xml version="1.0" encoding="utf-8"?>
<!-- Generator: Adobe Illustrator 17.0.0, SVG Export Plug-In . SVG Version: 6.00 Build 0)  -->
<!DOCTYPE svg PUBLIC "-//W3C//DTD SVG 1.1//EN" "http://www.w3.org/Graphics/SVG/1.1/DTD/svg11.dtd">
<svg version="1.1" id="Layer_1" xmlns="http://www.w3.org/2000/svg" xmlns:xlink="http://www.w3.org/1999/xlink" x="0px" y="0px"
	 width="130.118px" height="163.564px" viewBox="0 0 130.118 163.564" style="enable-background:new 0 0 130.118 163.564;"
	 xml:space="preserve">
<style type="text/css">
	.st0{fill:#AF3315;}
	.st1{fill:#F9F9F9;}
</style>
<g>
	<g>
		<path class="st0" d="M129.7,65.345c0,17.852-7.236,34.014-18.935,45.713s-27.861,18.935-45.712,18.935
			c-17.852,0-34.014-7.236-45.713-18.935S0.406,83.197,0.406,65.345c0-17.852,7.236-34.014,18.935-45.712S47.201,0.698,65.053,0.698
			C100.757,0.698,129.7,29.641,129.7,65.345z"/>
		<path class="st0" d="M8.943,45.812c5.849-5.849,45.988-9.467,54.914-9.467c11.093,0,52.939,5.588,58.76,14.103
			c2.472,11.813,1.659,24.181-1.473,36.512c-3.649,14.368-11.078,27.378-20.884,37.261c-13.762,13.916-29.217,22.289-38.143,22.289
			c-12.394-2.785-23.546-9.147-32.115-17.672c-9.074-9.021-14.233-20.473-17.736-32.038c-3.207-10.587-5.32-19.726-6.079-27.954
			C5.081,56.843,6.239,48.517,8.943,45.812z"/>
		<path class="st0" d="M128.901,71.992c-2.149,13.25-7.447,25.565-14.187,36.584s-14.921,20.742-22.833,28.809
			c-15.824,16.134-30.574,25.643-30.574,25.643c-15.159-12.176-26.528-23.953-35.055-34.771S12.041,107.582,8.251,99.247
			C0.672,82.576,0.672,71.992,0.672,71.992h64.115H128.901z"/>
	</g>
</g>
<circle class="st1" cx="65" cy="65" r="52.5"/>
</svg>
